# xmcd CD database file
#
# Track frame offsets:
#	150
#	32462
#	53492
#	81062
#	113550
#	159275
#	187337
#	193137
#	217375
#	238562
#	262312
#	288487
#	313575
#
# Disc length: 4337 seconds
#
# Revision: 0
# Processed by: cddbd v1.5.2PL0 Copyright (c) Steve Scherf et al.
# Submitted via: CDex 1.51
#
DISCID=bc10ef0d
DTITLE=H.M. King Bhumibol Adulyadej - Gala Performance of Jazz Compositions
DYEAR=1995
DGENRE=Jazz
TTITLE0=Friday Night Rag Part 1
TTITLE1=Friday Night Rag Part 2
TTITLE2=Friday Night Rag Part 3
TTITLE3=Oh I Say
TTITLE4=Love at Sundown
TTITLE5=When
TTITLE6=Friday Night Rag Part 3 (reprise)
TTITLE7=H.M. Blues
TTITLE8=Never Mind the H.M. Blues
TTITLE9=Blue Day
TTITLE10=Can't You Ever See
TTITLE11=Lay Kram Goes Dixie
TTITLE12=H,M, Blues (reprise)
EXTD=YEAR: 1995
EXTT0=
EXTT1=
EXTT2=
EXTT3=
EXTT4=
EXTT5=
EXTT6=
EXTT7=
EXTT8=
EXTT9=
EXTT10=
EXTT11=
EXTT12=
PLAYORDER=
